<svg viewBox="0 0 685 164" xmlns="http://www.w3.org/2000/svg" xmlns:svg="http://www.w3.org/2000/svg" version="1.1">
 <g class="layer" display="inline">
  <title>Layer 1</title>
  <path d="m155.38,41.05c1.02,-0.02 1.02,-0.02 2.07,-0.05c4.25,-0.01 8.22,0.52 12.4,1.43c0.98,0.22 1.96,0.43 2.97,0.65c0.74,0.16 1.48,0.32 2.25,0.5c0.16,11 0.28,22.01 0.36,33.02c0.04,5.11 0.09,10.22 0.17,15.34c0.07,4.94 0.11,9.89 0.13,14.84c0.01,1.87 0.04,3.74 0.08,5.62c0.28,14.29 -1.5,25.7 -9.99,36.84c-8.12,9.12 -15.53,11.91 -26.75,13.21c0,-39.61 0,-79.21 0,-120.02c5.63,-0.82 10.71,-1.36 16.31,-1.37l0,-0.01z" fill="#17d37b" id="svg_147"/>
  <path d="m218.72,46.66c-24.09,-15.66 -11.8,-32.7 8.14,-36.96c40.86,5.03 56.47,40.2 53.47,59.94c-3,19.74 -34.61,34.69 -35.17,35.64c25.18,44.87 27.83,49.37 30.75,53.77c0.81,1.43 0.81,1.43 0.81,3.27c-12.56,0 -25.12,0 -38.06,0c-26.88,-48.67 -27.93,-50.86 -28.78,-53.36c-11.64,0 -23.28,0 -35.27,0c0,-10.93 0,-21.86 0,-33.12c50.21,-0.7 54.28,0.86 66.25,-5.23c11.46,-12.14 -3,-24.62 -22.15,-23.94l0.01,-0.01z" fill="#304399" id="svg_149"/>
  <path d="m229.7,9.86c14.27,12.94 13.06,33.65 -4.34,36.85c-37.46,-0.38 -119.8,1.1 -142.5,-0.13c-17.34,-4.36 -17.94,-27.59 -1.66,-36.89l148.51,0.17l-0.01,0z" fill="#17d37b" id="svg_173"/>
  <path d="m52.38,10.1c1.13,0 1.13,0 2.27,-0.01c2.49,0 4.98,0.01 7.47,0.02c1.8,0 3.59,0 5.39,0c4.85,0 9.71,0.01 14.56,0.03c5.08,0.01 10.16,0.01 15.24,0.01c9.61,0.01 19.22,0.03 28.83,0.05c-13.06,37.36 -13.06,37.36 -35.94,37.58c-7.09,0.06 -7.09,0.06 -14.32,0.13c-4.23,0.04 -4.23,0.04 -8.46,0.09c-1.88,0.02 -3.77,0.03 -5.65,0.05c-2.86,0.02 -5.71,0.05 -8.57,0.09c-1.26,0 -1.26,0 -2.55,0.01c-3.29,0.04 -6,0.14 -9.14,1.19c-0.1,1.22 -0.21,2.43 -0.31,3.69c-0.09,1.02 -0.09,1.02 -0.18,2.07c0.77,3.53 2.75,4.99 5.49,7.24c2.81,1.25 2.81,1.25 6.06,1.94c0.62,0.15 1.24,0.3 1.87,0.46c8.26,1.98 16.59,3.68 24.9,5.41c16.59,3.46 33.33,7.19 43.95,21.61c7.06,11.15 8.57,21.51 6.66,34.58c-2.84,12.18 -10.79,23.6 -21.25,30.38c-11.41,6.9 -24.36,6.02 -37.17,5.91c-2.03,0 -4.05,-0.01 -6.08,-0.01c-5.29,-0.01 -10.59,-0.04 -15.88,-0.07c-5.42,-0.03 -10.83,-0.05 -16.25,-0.06c-10.6,-0.04 -21.21,-0.09 -31.81,-0.15c0.68,-3.77 1.56,-6.27 3.69,-9.48c0.83,-1.25 0.83,-1.25 1.68,-2.53c0.58,-0.86 1.16,-1.73 1.75,-2.61c1.13,-1.7 2.26,-3.41 3.39,-5.11c0.55,-0.8 1.11,-1.6 1.68,-2.43c1.86,-2.77 1.86,-2.77 3.13,-5.72c1.6,-3.25 3.08,-5.59 5.68,-8.12c5.21,-1.55 10.27,-1.33 15.64,-1.15c1.52,0.01 3.05,0.01 4.58,0.01c4,0 8.01,0.07 12.01,0.15c6.42,0.13 12.84,0.17 19.26,0.19c2.24,0.02 4.48,0.07 6.71,0.12c1.38,0.02 2.75,0.04 4.12,0.05c1.2,0.03 2.39,0.05 3.63,0.08c3.13,-0.21 3.13,-0.21 5.43,-2.25c1.9,-2.23 1.9,-2.23 2.18,-5.76c-0.18,-3.47 -0.18,-3.47 -2.45,-4.97c-4.36,-2.06 -8.82,-3.18 -13.49,-4.34c-1,-0.26 -2.01,-0.52 -3.05,-0.79c-7.22,-1.82 -14.47,-3.43 -21.76,-4.96c-15.82,-3.38 -29.97,-7.09 -40.09,-20.68c-7.68,-12.02 -9.55,-24.41 -7.07,-38.36c3.29,-11.82 10.22,-21.47 20.8,-27.81c7.61,-4.01 14.82,-5.84 23.42,-5.77z" fill="#ff00b6" id="svg_175"/>
  <text fill="url(#svg_7)" font-family="Sans-serif" font-size="105" id="svg_1" stroke-width="0" text-anchor="middle" x="479" xml:space="preserve" y="104.25">StraWeb</text>
  <text fill="url(#svg_9)" font-family="Sans-serif" font-size="28" id="svg_2" stroke-width="0" text-anchor="middle" x="474" xml:space="preserve" y="142.9">Strategy Technology Resolutionist</text>
 </g>
 <defs>
  <linearGradient id="svg_7" x1="0" x2="1" y1="0" y2="0">
   <stop id="jq_stop_6425" offset="0.3" stop-color="#ff00b6"/>
   <stop id="jq_stop_9333" offset="0.56" stop-color="#00ff49"/>
   <stop id="jq_stop_9570" offset="0.74" stop-color="#304399" stop-opacity="1"/>
   <stop id="jq_stop_9336" offset="1" stop-color="#304399" stop-opacity="1"/>
  </linearGradient>
  <linearGradient id="svg_9" x1="0" x2="1" y1="0" y2="0">
   <stop id="jq_stop_4964" offset="0" stop-color="#ff00b6" stop-opacity="1"/>
   <stop id="jq_stop_2936" offset="0.68" stop-color="#304399" stop-opacity="1"/>
   <stop id="jq_stop_341" offset="1" stop-color="#304399" stop-opacity="1"/>
  </linearGradient>
 </defs>
</svg>