<svg viewBox="0 0 250 50" xmlns="http://www.w3.org/2000/svg" xmlns:svg="http://www.w3.org/2000/svg" version="1.1" xmlns:bx="https://boxy-svg.com">
  <defs>
    <linearGradient fx="0.54" fy="0.73" id="svg_7" x1="0" x2="0.63" y1="0" y2="0.11">
      <stop id="jq_stop_459" offset="0" stop-color="#b2267f"></stop>
      <stop id="jq_stop_4537" offset="1" stop-color="#3069ad" stop-opacity="1"></stop>
    </linearGradient>
    <linearGradient fx="1" fy="0.95" id="svg_15" x1="0.32" x2="0.69" y1="0.54" y2="0.65">
      <stop id="jq_stop_3140" offset="0" stop-color="#b2267f"></stop>
      <stop id="jq_stop_4538" offset="1" stop-color="#3069ad" stop-opacity="1"></stop>
    </linearGradient>
  </defs>
  <g class="layer" display="inline">
    <bx:title>Layer 1</bx:title>
    <g transform="matrix(1.002483, 0, 0, 0.642545, -0.62094, -2.03885)">
      <path d="M 14.39 4.69 C -2.41 9.21 -2.01 33.8 14.93 38.31 C 16.31 38.68 19.75 38.83 26.52 38.84 L 36.16 38.84 L 37.35 39.84 C 39.41 41.57 39.23 45.07 37.02 46.25 C 36.53 46.52 9.16 46.6 8.9 46.65 C 8.64 46.7 9.27 51.36 9.27 53.57 L 3.09 59.53 C 20.99 59.53 36.83 59.83 38.69 59.35 C 53.99 55.36 55.72 34.22 41.3 27.35 L 38.76 26.15 L 27.95 25.95 C 17.19 25.75 17.14 25.75 16.14 24.81 C 14.31 23.09 14.44 20.45 16.44 18.83 L 63.35 18.64 C 59.25 6.94 92 3.76 62.39 4.13 C 32.78 4.5 16.17 4.21 14.39 4.69" fill="#b2267f" fill-rule="evenodd" id="svg_2">
        <bx:title>s</bx:title>
      </path>
      <path d="M 53.443 21.63 L 53.443 40.48 L 53.443 59.34 L 54.539 59.11 C 58.292 58.31 61.314 55.13 62.769 50.41 C 63.37 48.46 63.4 47.81 63.4 35.01 L 63.419 23.775 L 63.405 21.595" fill="#32467f" fill-rule="evenodd" id="svg_3" style="">
        <bx:title>t</bx:title>
      </path>
      <path d="M 63.98 4.32 C 61.45 5 59.47 6.48 57.04 9.47 C 53.42 13.92 47.11 18.57 43.85 18.73 C 40.59 18.89 39.94 18.68 63.1 18.72 C 86.26 18.76 84.73 18.08 86.87 20.3 C 89.01 22.52 87.62 26.64 85.28 28.23 C 84.27 28.91 83.13 28.99 71.68 29.17 L 66.37 42.06 L 72.58 42.06 L 77.19 48.79 C 79.73 52.5 82.47 56.45 83.3 57.58 L 84.79 59.63 L 91.98 59.63 C 95.94 59.63 99.27 59.48 99.39 59.29 C 99.51 59.1 96.79 55.01 93.36 50.21 C 86.76 40.96 86.72 40.88 87.82 40.88 C 90.23 40.88 95.32 36.99 97.41 33.54 C 104.57 21.72 98.56 6.56 85.77 4.2 C 82.52 3.6 66.33 3.69 63.98 4.32" fill="#3069ad" fill-rule="evenodd" id="svg_1">
        <bx:title>r</bx:title>
      </path>
    </g>
    <text id="svg_4" style="fill: url(#svg_7); font-family: serif; font-size: 44px; font-weight: 700; stroke-width: 0px; text-anchor: middle; white-space: pre;" transform="matrix(0.909449, 0, 0, 1.140703, 16.878077, -24.040571)" x="174" y="53.06"><bx:title>StraWeb</bx:title>StraWeb</text>
    <text fill="url(#svg_15)" font-family="Serif" font-size="18" id="svg_14" stroke-width="0" text-anchor="middle" x="125" y="75" style="white-space: pre;" transform="matrix(1.000634, 0, 0, 0.71355, -0.619423, -6.345556)"><bx:title>Strategy Technology Resolutionist</bx:title>Strategy Technology Resolutionist</text>
  </g>
</svg>