<svg viewBox="0 0 200 50" xmlns="http://www.w3.org/2000/svg" version="1.1" xmlns:bx="https://boxy-svg.com">
  <defs>
    <linearGradient fx="0.54" fy="0.73" id="svg_7" x1="0" x2="0.63" y1="0" y2="0.11">
      <stop id="jq_stop_459" offset="0" stop-color="#b2267f"></stop>
      <stop id="jq_stop_4537" offset="1" stop-color="#3069ad" stop-opacity="1"></stop>
    </linearGradient>
    <linearGradient fx="1" fy="0.95" id="svg_15" x1="0.32" x2="0.69" y1="0.54" y2="0.65">
      <stop id="jq_stop_3140" offset="0" stop-color="#b2267f"></stop>
      <stop id="jq_stop_4538" offset="1" stop-color="#3069ad" stop-opacity="1"></stop>
    </linearGradient>
  </defs>
  <path d="M 11.538 1.455 C -2.465 4.103 -2.131 18.508 11.988 21.15 C 13.138 21.367 16.006 21.455 21.649 21.461 L 29.683 21.461 L 30.675 22.046 C 32.393 23.06 32.242 25.11 30.401 25.801 C 29.992 25.959 7.179 26.006 6.962 26.035 C 6.745 26.064 7.271 28.794 7.271 30.089 L 2.119 33.58 C 17.039 33.58 30.242 33.756 31.792 33.475 C 44.545 31.138 45.987 18.754 33.968 14.73 L 31.851 14.026 L 22.84 13.909 C 13.872 13.793 13.83 13.793 12.997 13.242 C 11.472 12.234 11.58 10.687 13.246 9.738 L 52.347 9.627 C 48.93 2.774 76.227 0.91 51.546 1.128 C 26.866 1.344 13.022 1.175 11.538 1.455" fill="#b2267f" fill-rule="evenodd" id="svg_2" style=""></path>
  <path d="M 44.089 11.379 L 44.089 22.421 L 44.089 33.469 L 45.003 33.334 C 48.131 32.866 50.65 31.003 51.863 28.238 C 52.364 27.095 52.388 26.715 52.388 19.217 L 52.404 12.635 L 52.392 11.358" fill="#32467f" fill-rule="evenodd" id="svg_3" style=""></path>
  <path d="M 52.872 1.239 C 50.763 1.637 49.113 2.504 47.087 4.255 C 44.07 6.862 38.811 9.586 36.093 9.68 C 33.376 9.774 32.835 9.65 52.138 9.674 C 71.442 9.697 70.167 9.299 71.951 10.599 C 73.735 11.9 72.576 14.314 70.625 15.245 C 69.784 15.643 68.834 15.69 59.29 15.796 L 54.864 23.346 L 60.04 23.346 L 63.883 27.289 C 66 29.462 68.284 31.776 68.975 32.438 L 70.218 33.638 L 76.21 33.638 C 79.511 33.638 82.286 33.551 82.387 33.44 C 82.487 33.328 80.219 30.932 77.36 28.12 C 71.859 22.702 71.826 22.655 72.743 22.655 C 74.752 22.655 78.994 20.377 80.736 18.355 C 86.704 11.432 81.694 2.551 71.034 1.169 C 68.325 0.817 54.831 0.869 52.872 1.239" fill="#3069ad" fill-rule="evenodd" id="svg_1" style=""></path>
  <text id="svg_4" style="fill: url(#svg_7); font-family: serif; font-size: 1.7em; font-weight: 700; stroke-width: 0px; text-anchor: middle; white-space: pre;" x="141.119" y="29.263" transform="matrix(1.13163, 0, 0, 1.437474, -17.52614, -10.259977)">StraWeb</text>
  <text fill="url(#svg_15)" font-family="Serif" id="svg_14" stroke-width="0" text-anchor="middle" x="101.12" y="46.629" style="white-space: pre; font-size: 0.75em;" transform="matrix(1.166985, 0, 0, 1.165597, -18.169693, -8.248239)">Strategy Technology Resolutionist</text>
</svg>