<?xml version="1.0" encoding="UTF-8" standalone="no" ?>
<!DOCTYPE svg PUBLIC "-//W3C//DTD SVG 1.1//EN" "http://www.w3.org/Graphics/SVG/1.1/DTD/svg11.dtd">
<svg xmlns="http://www.w3.org/2000/svg" xmlns:xlink="http://www.w3.org/1999/xlink" version="1.1" width="1080" height="1080" viewBox="0 0 1080 1080" xml:space="preserve">
<desc>Created with Fabric.js 5.2.4</desc>
<defs>
</defs>
<g transform="matrix(1 0 0 1 540 540)" id="8b2493a1-264c-428a-a282-5e5392537938"  >
<rect style="stroke: none; stroke-width: 1; stroke-dasharray: none; stroke-linecap: butt; stroke-dashoffset: 0; stroke-linejoin: miter; stroke-miterlimit: 4; fill: rgb(255,255,255); fill-rule: nonzero; opacity: 1; visibility: hidden;" vector-effect="non-scaling-stroke"  x="-540" y="-540" rx="0" ry="0" width="1080" height="1080" />
</g>
<g transform="matrix(1 0 0 1 540 540)" id="5f47fcd1-9ddd-4636-b014-8e641de5e46e"  >
</g>
<g transform="matrix(10.59 5.92 -6.03 10.53 283.25 646.98)"  >
<rect style="stroke: none; stroke-width: 1; stroke-dasharray: none; stroke-linecap: butt; stroke-dashoffset: 0; stroke-linejoin: miter; stroke-miterlimit: 4; fill: rgb(197,247,79); fill-rule: nonzero; opacity: 1;" vector-effect="non-scaling-stroke"  x="-2.70883" y="-11.4895" rx="0" ry="0" width="5.41766" height="22.979" />
</g>
<g transform="matrix(10.59 5.92 -6.03 10.53 511.57 505.25)"  >
<rect style="stroke: none; stroke-width: 1; stroke-dasharray: none; stroke-linecap: butt; stroke-dashoffset: 0; stroke-linejoin: miter; stroke-miterlimit: 4; fill: rgb(197,247,79); fill-rule: nonzero; opacity: 1;" vector-effect="non-scaling-stroke"  x="-2.70883" y="-11.4895" rx="0" ry="0" width="5.41766" height="22.979" />
</g>
<g transform="matrix(10.59 5.92 -6.03 10.53 862.88 505.26)"  >
<rect style="stroke: none; stroke-width: 1; stroke-dasharray: none; stroke-linecap: butt; stroke-dashoffset: 0; stroke-linejoin: miter; stroke-miterlimit: 4; fill: rgb(197,247,79); fill-rule: nonzero; opacity: 1;" vector-effect="non-scaling-stroke"  x="-2.70883" y="-11.4895" rx="0" ry="0" width="5.41766" height="22.979" />
</g>
<g transform="matrix(10.59 5.92 -6.03 10.53 634.49 646.98)"  >
<rect style="stroke: none; stroke-width: 1; stroke-dasharray: none; stroke-linecap: butt; stroke-dashoffset: 0; stroke-linejoin: miter; stroke-miterlimit: 4; fill: rgb(197,247,79); fill-rule: nonzero; opacity: 1;" vector-effect="non-scaling-stroke"  x="-2.70883" y="-11.4895" rx="0" ry="0" width="5.41766" height="22.979" />
</g>
<g transform="matrix(12.13 0 0 12.13 1278.93 600.88)"  >
<path style="stroke: none; stroke-width: 1; stroke-dasharray: none; stroke-linecap: butt; stroke-dashoffset: 0; stroke-linejoin: miter; stroke-miterlimit: 4; fill: rgb(243,244,246); fill-rule: nonzero; opacity: 1;" vector-effect="non-scaling-stroke"  transform=" translate(-103.19, -31.85)" d="M 94.5 20.2221 L 101.96 20.2221 C 108.47 20.2221 111.87 24.1537 111.87 31.6785 C 111.87 39.4772 108.518 43.4732 101.96 43.4732 L 94.5 43.4732 L 94.5 20.2221 Z M 99.0761 24.1698 L 99.0761 39.5255 L 101.332 39.5255 C 105.36 39.5255 107.197 37.1086 107.197 31.759 C 107.197 26.6351 105.296 24.1698 101.332 24.1698 L 99.0761 24.1698 Z" stroke-linecap="round" />
</g>
<g transform="matrix(12.13 0 0 12.13 1544.76 631.27)"  >
<path style="stroke: none; stroke-width: 1; stroke-dasharray: none; stroke-linecap: butt; stroke-dashoffset: 0; stroke-linejoin: miter; stroke-miterlimit: 4; fill: rgb(243,244,246); fill-rule: nonzero; opacity: 1;" vector-effect="non-scaling-stroke"  transform=" translate(-125.1, -34.35)" d="M 124.461 35.5939 L 124.461 40.2345 L 129.617 40.2345 L 129.617 43.4732 L 116.855 43.4732 L 116.855 40.2345 L 120.239 40.2345 L 120.239 28.9554 L 116.533 28.9554 L 116.533 25.7005 L 124.493 25.7005 L 124.493 30.2605 L 125.186 30.2605 C 125.959 26.7318 127.78 25.2333 131.131 25.2333 C 132.13 25.2333 133.033 25.3622 133.661 25.6039 L 133.661 30.3894 C 132.855 30.0833 131.695 29.8738 130.696 29.8738 C 126.507 29.8738 124.461 31.7752 124.461 35.5939 Z" stroke-linecap="round" />
</g>
<g transform="matrix(12.13 0 0 12.13 1810.68 578.3)"  >
<path style="stroke: none; stroke-width: 1; stroke-dasharray: none; stroke-linecap: butt; stroke-dashoffset: 0; stroke-linejoin: miter; stroke-miterlimit: 4; fill: rgb(243,244,246); fill-rule: nonzero; opacity: 1;" vector-effect="non-scaling-stroke"  transform=" translate(-147.02, -29.99)" d="M 147.106 22.0751 C 145.301 22.0751 144.093 20.9633 144.093 19.2876 C 144.093 17.6118 145.301 16.5 147.106 16.5 C 148.91 16.5 150.135 17.6118 150.135 19.2876 C 150.135 20.9633 148.91 22.0751 147.106 22.0751 Z M 154.695 43.4732 L 139.339 43.4732 L 139.339 39.9606 L 145.043 39.9606 L 145.043 29.2293 L 139.629 29.2293 L 139.629 25.7005 L 149.329 25.7005 L 149.329 39.9606 L 154.695 39.9606 L 154.695 43.4732 Z" stroke-linecap="round" />
</g>
<g transform="matrix(12.13 0 0 12.13 2076.12 634.11)"  >
<path style="stroke: none; stroke-width: 1; stroke-dasharray: none; stroke-linecap: butt; stroke-dashoffset: 0; stroke-linejoin: miter; stroke-miterlimit: 4; fill: rgb(243,244,246); fill-rule: nonzero; opacity: 1;" vector-effect="non-scaling-stroke"  transform=" translate(-168.9, -34.59)" d="M 161.533 43.4732 L 161.533 40.8468 L 170.782 29.5354 L 170.782 29.2615 L 161.678 29.2615 L 161.678 25.7005 L 176.067 25.7005 L 176.067 28.6653 L 167.334 39.6383 L 167.334 39.9122 L 176.261 39.9122 L 176.261 43.4732 L 161.533 43.4732 Z" stroke-linecap="round" />
</g>
<g transform="matrix(12.13 0 0 12.13 2343.61 634.11)"  >
<path style="stroke: none; stroke-width: 1; stroke-dasharray: none; stroke-linecap: butt; stroke-dashoffset: 0; stroke-linejoin: miter; stroke-miterlimit: 4; fill: rgb(243,244,246); fill-rule: nonzero; opacity: 1;" vector-effect="non-scaling-stroke"  transform=" translate(-190.95, -34.59)" d="M 183.583 43.4732 L 183.583 40.8468 L 192.831 29.5354 L 192.831 29.2615 L 183.728 29.2615 L 183.728 25.7005 L 198.116 25.7005 L 198.116 28.6653 L 189.383 39.6383 L 189.383 39.9122 L 198.31 39.9122 L 198.31 43.4732 L 183.583 43.4732 Z" stroke-linecap="round" />
</g>
<g transform="matrix(12.13 0 0 12.13 2613.15 593.06)"  >
<path style="stroke: none; stroke-width: 1; stroke-dasharray: none; stroke-linecap: butt; stroke-dashoffset: 0; stroke-linejoin: miter; stroke-miterlimit: 4; fill: rgb(243,244,246); fill-rule: nonzero; opacity: 1;" vector-effect="non-scaling-stroke"  transform=" translate(-213.16, -31.2)" d="M 220.842 43.4732 L 205.487 43.4732 L 205.487 39.9606 L 211.126 39.9606 L 211.126 22.4457 L 205.777 22.4457 L 205.777 18.9331 L 215.541 18.9331 L 215.541 39.9606 L 220.842 39.9606 L 220.842 43.4732 Z" stroke-linecap="round" />
</g>
<g transform="matrix(12.13 0 0 12.13 2880.06 634.2)"  >
<path style="stroke: none; stroke-width: 1; stroke-dasharray: none; stroke-linecap: butt; stroke-dashoffset: 0; stroke-linejoin: miter; stroke-miterlimit: 4; fill: rgb(243,244,246); fill-rule: nonzero; opacity: 1;" vector-effect="non-scaling-stroke"  transform=" translate(-235.17, -34.59)" d="M 238.895 38.4782 L 243.053 38.4782 C 242.682 41.6202 239.54 43.8599 235.415 43.8599 C 230.243 43.8599 227.278 40.9596 227.278 35.9162 L 227.278 33.0642 C 227.278 28.4075 230.5 25.3299 235.334 25.3299 C 240.039 25.3299 243.053 28.4236 243.053 33.1931 L 243.053 35.6423 L 231.596 35.6423 L 231.596 36.6091 C 231.596 38.9293 233.095 40.444 235.399 40.444 C 237.171 40.444 238.573 39.6383 238.895 38.4782 Z M 235.254 28.7459 C 232.966 28.7459 231.596 30.2766 231.596 32.8225 L 238.799 32.8225 C 238.799 30.2766 237.477 28.7459 235.254 28.7459 Z" stroke-linecap="round" />
</g>
</svg>